<svg xmlns="http://www.w3.org/2000/svg" viewBox="0 0 120 120" width="32" height="32" fill="none">
  <!-- Left page -->
  <path d="M22 28 L22 76 Q22 90 38 90 L57 90 L57 28 Z"
    fill="#4A9EFF" fill-opacity="0.18"/>
  <path d="M22 28 L22 76 Q22 90 38 90 L57 90 L57 28 Z"
    stroke="#4A9EFF" stroke-width="5.5" stroke-linejoin="round" fill="none"/>
  <!-- Right page -->
  <path d="M98 28 L98 76 Q98 90 82 90 L63 90 L63 28 Z"
    fill="#4A9EFF" fill-opacity="0.18"/>
  <path d="M98 28 L98 76 Q98 90 82 90 L63 90 L63 28 Z"
    stroke="#4A9EFF" stroke-width="5.5" stroke-linejoin="round" fill="none"/>
  <!-- Top crossbar -->
  <line x1="22" y1="28" x2="98" y2="28" stroke="#4A9EFF" stroke-width="5.5" stroke-linecap="round"/>
  <!-- Center spine -->
  <line x1="60" y1="28" x2="60" y2="90" stroke="#4A9EFF" stroke-width="3" stroke-linecap="round" opacity="0.5"/>
  <!-- Beacon connector -->
  <line x1="60" y1="20" x2="60" y2="28" stroke="#4A9EFF" stroke-width="3" stroke-linecap="round" opacity="0.7"/>
  <!-- Beacon dot -->
  <circle cx="60" cy="13" r="7" fill="#4A9EFF"/>
</svg>
